<svg id="Layer_1" data-name="Layer 1" xmlns="http://www.w3.org/2000/svg" viewBox="0 0 216 60"><defs><style>.cls-1{fill:#ffa000;}.cls-2{fill:#039be5;}</style></defs><title>CV BUILDER final UI</title><path class="cls-1" d="M35.37,33.41a6.43,6.43,0,0,1-6.43-11.14L16.08,0A32.15,32.15,0,1,0,48.23,55.69Z"/><polygon class="cls-2" points="54.23 0 48.23 10.39 42.23 0 16.08 0 48.23 55.69 80.38 0 54.23 0"/><path class="cls-2" d="M81,47.47a8.54,8.54,0,0,1,.45-2.82,6.55,6.55,0,0,1,1.32-2.28,6.23,6.23,0,0,1,2.15-1.54,7.17,7.17,0,0,1,2.93-.57,10.38,10.38,0,0,1,3.83.58v3.28a6,6,0,0,0-1.63-.54,9.31,9.31,0,0,0-1.54-.13,6,6,0,0,0-1.42.16,2.85,2.85,0,0,0-1.18.58,2.82,2.82,0,0,0-.8,1.12,4.58,4.58,0,0,0-.29,1.77A3.55,3.55,0,0,0,85.92,50a4.34,4.34,0,0,0,2.86.9,7.91,7.91,0,0,0,2.84-.58v2.91a5.72,5.72,0,0,1-1.76.58,13.69,13.69,0,0,1-2.48.2,6.22,6.22,0,0,1-4.79-1.73A6.82,6.82,0,0,1,81,47.47Z"/><path class="cls-2" d="M102.61,40.82l1.83,6.36.84,3h.18l.93-3,2.06-6.33h3.95L107.34,54H103L98.43,40.82Z"/><path class="cls-2" d="M119.14,36.3l1.77-.3v5.83a12.18,12.18,0,0,1,2-1,5.94,5.94,0,0,1,2.19-.41,4.11,4.11,0,0,1,3.56,1.67,7.58,7.58,0,0,1,1.21,4.52,10.13,10.13,0,0,1-.47,3.24,6.34,6.34,0,0,1-1.31,2.29,5.46,5.46,0,0,1-2,1.38,6.86,6.86,0,0,1-2.55.46,13.11,13.11,0,0,1-2-.16,19.29,19.29,0,0,1-2.31-.54Zm1.77,15.81a11,11,0,0,0,1.38.22,14.07,14.07,0,0,0,1.41.07,4.24,4.24,0,0,0,2-.44A3.59,3.59,0,0,0,127,50.79a4.85,4.85,0,0,0,.7-1.73,10.55,10.55,0,0,0,.2-2.12,6.74,6.74,0,0,0-.81-3.66A2.89,2.89,0,0,0,124.51,42a4.77,4.77,0,0,0-1.92.41c-.62.27-1.18.54-1.68.81Z"/><path class="cls-2" d="M147.6,54h-1.8l-.55-2a15.93,15.93,0,0,1-2.12,1.37,5.53,5.53,0,0,1-2.7.67,3.64,3.64,0,0,1-3-1.09,5.65,5.65,0,0,1-.9-3.59V41l1.77-.3v8.45a4.47,4.47,0,0,0,.54,2.46,2.45,2.45,0,0,0,2.16.8,4.32,4.32,0,0,0,2-.55,19.45,19.45,0,0,0,2-1.22V41l1.77-.3v10Z"/><path class="cls-2" d="M165.76,36.24V54H164V36.54Z"/><path class="cls-2" d="M181.67,52.2a9.45,9.45,0,0,1-1.9,1.26,5.17,5.17,0,0,1-2.37.54,4.78,4.78,0,0,1-1.84-.36A4.25,4.25,0,0,1,174,52.52a5.54,5.54,0,0,1-1.09-1.93,8.58,8.58,0,0,1-.41-2.8,9.44,9.44,0,0,1,.48-3.13,6.93,6.93,0,0,1,1.31-2.31,5.33,5.33,0,0,1,2-1.42,6.31,6.31,0,0,1,2.46-.48,11.1,11.1,0,0,1,1.44.1c.51.07,1,.14,1.35.22V36.3l1.74-.3V50.92l.7,3.08h-1.77Zm-.17-9.73a8.71,8.71,0,0,0-1.35-.32,9.65,9.65,0,0,0-1.47-.12,4,4,0,0,0-3.18,1.25,6.16,6.16,0,0,0-1.12,4.15,6.76,6.76,0,0,0,.83,3.72,2.81,2.81,0,0,0,2.51,1.25,4,4,0,0,0,1.89-.46,20.08,20.08,0,0,0,1.89-1.16Z"/><path class="cls-2" d="M190.68,47.47a9.86,9.86,0,0,1,.38-2.77,6.68,6.68,0,0,1,1.1-2.24A5.11,5.11,0,0,1,194,41a5.41,5.41,0,0,1,2.47-.54,5.51,5.51,0,0,1,2.4.48,4.51,4.51,0,0,1,1.66,1.32,5.49,5.49,0,0,1,1,2,9.44,9.44,0,0,1,.3,2.45v.87h-9.18a5.26,5.26,0,0,0,1.2,3.7,4.3,4.3,0,0,0,3.18,1.15,11.67,11.67,0,0,0,2.34-.25,8.56,8.56,0,0,0,2.13-.71V53a7.3,7.3,0,0,1-2,.76,12.26,12.26,0,0,1-2.71.26,5.66,5.66,0,0,1-4.52-1.73A7.12,7.12,0,0,1,190.68,47.47Zm9.06-1.34a7.29,7.29,0,0,0-.22-1.58,3.83,3.83,0,0,0-.58-1.29,2.87,2.87,0,0,0-1-.89,3.32,3.32,0,0,0-1.54-.33,3.62,3.62,0,0,0-2.48.92,4.78,4.78,0,0,0-1.26,3.18Z"/><path class="cls-2" d="M208.48,40.93h1.8l.35,1.86a10.36,10.36,0,0,1,1.86-1.47,4.12,4.12,0,0,1,2.21-.65c.23,0,.45,0,.65,0a4.47,4.47,0,0,1,.65.12v1.71a3.83,3.83,0,0,0-.61-.12,5.49,5.49,0,0,0-.58,0,4.22,4.22,0,0,0-2.26.59,12.93,12.93,0,0,0-1.74,1.29V54H209V44Z"/><path class="cls-2" d="M156.68,40.93V54h-1.77V41.23Z"/><path class="cls-2" d="M154.34,38.59a1.33,1.33,0,0,1,.41-1,1.44,1.44,0,0,1,1-.39,1.46,1.46,0,0,1,1,.39,1.32,1.32,0,0,1,.42,1,1.36,1.36,0,0,1-.42,1,1.42,1.42,0,0,1-1,.41,1.41,1.41,0,0,1-1-.41A1.37,1.37,0,0,1,154.34,38.59Z"/><path class="cls-1" d="M88.42,19.44c-.14-.53-.3-1-.48-1.55s-.37-1.12-.58-1.68l-1.45.32q.78,2.5,1.17,3.78a7.29,7.29,0,0,1,.39,1.83,9.93,9.93,0,0,1-.23,2.08,6.26,6.26,0,0,1-.79,2A4.7,4.7,0,0,1,85,27.68a3.84,3.84,0,0,1-2.18.58,6,6,0,0,1-.77,0l-.59-.1L81,27.94l.08,1.66a1.84,1.84,0,0,0,.44.21,3.1,3.1,0,0,0,.57.14,4.32,4.32,0,0,0,.77.06,4.88,4.88,0,0,0,2.58-.64,6.19,6.19,0,0,0,1.74-1.57,7.16,7.16,0,0,0,1.06-2,10.71,10.71,0,0,0,.48-1.92,8.87,8.87,0,0,0,.15-1.56A9.46,9.46,0,0,0,88.78,21C88.68,20.48,88.56,20,88.42,19.44Z"/><path class="cls-1" d="M141.06,17.25c-.07-.55-.14-1.1-.22-1.64s-.16-1-.23-1.45l-1.45.29q.32,2.09.51,3.69a23.21,23.21,0,0,1,.19,2.64q0,.47-.76.83a6.28,6.28,0,0,1-2.53.36,9.26,9.26,0,0,1-2.18-.23,3.94,3.94,0,0,1-1.45-.61l.5-4.94H132c0,.11,0,.38-.09.8s-.09.87-.14,1.35-.11,1-.16,1.41-.09.79-.13,1-.37.64-1,.87A7.12,7.12,0,0,1,128,22l-.16,0h-14l-.16,0a4.46,4.46,0,0,1-1.76-.28,2.05,2.05,0,0,1-.93-.76,2.77,2.77,0,0,1-.39-1.13,11.38,11.38,0,0,1-.08-1.44V6L109,6.3V20.81c0,.35-.27.63-.81.84a8.2,8.2,0,0,1-2.73.32l-.16,0h-1.45l-.16,0a6,6,0,0,1-1.35-.13,2.06,2.06,0,0,1-.93-.5,3.21,3.21,0,0,1-.7-1,15.11,15.11,0,0,1-.65-1.68L98,12.53l-1.54.23q.58,1.8,1.13,3.4.47,1.39,1,2.82t.83,2.27a1.88,1.88,0,0,1-.42.25,5.32,5.32,0,0,1-.87.3,10.74,10.74,0,0,1-2.77.35,12.19,12.19,0,0,1-2.54-.23A17.76,17.76,0,0,1,91,21.44l.06,1.71a5.68,5.68,0,0,0,1.66.52,13.79,13.79,0,0,0,2.53.21,11.09,11.09,0,0,0,2.35-.23A5.25,5.25,0,0,0,99.33,23a1.85,1.85,0,0,0,.79-.84,3.12,3.12,0,0,0,1.35,1.19,4.88,4.88,0,0,0,1.75.36v0h2.11v0l.12,0h.46a8.5,8.5,0,0,0,1.86-.24,3.77,3.77,0,0,0,1.45-.68,4.69,4.69,0,0,0,.43-.44,3.12,3.12,0,0,0,.38-.55,3.05,3.05,0,0,0,1.28,1.44,4.4,4.4,0,0,0,1.92.46v0h15.21v0a8.54,8.54,0,0,0,1.85-.25,3.4,3.4,0,0,0,1.55-.8l.1-.1.1-.1a4.14,4.14,0,0,0,1.89,1,10.71,10.71,0,0,0,2.64.3,8.24,8.24,0,0,0,2.25-.28,3.67,3.67,0,0,0,1.56-.83,3.17,3.17,0,0,0,.67-1,3.47,3.47,0,0,0,.26-1.39c0-.39,0-.84-.07-1.37S141.13,17.8,141.06,17.25Z"/><path class="cls-1" d="M157.57,19.34,156.36,19q-.65-.2-1.2-.42a7,7,0,0,1-.93-.43q-.38-.22-.38-.42a.89.89,0,0,1,.29-.55,3.61,3.61,0,0,1,.76-.61,5.33,5.33,0,0,1,1-.49,3.24,3.24,0,0,1,1.09-.2,1.73,1.73,0,0,1,1,.25,2.8,2.8,0,0,1,.62.55,2.33,2.33,0,0,1,.35.57l.13.32,2-1.63a5.73,5.73,0,0,0-.61-1.95,4.19,4.19,0,0,0-1.12-1.32,3.09,3.09,0,0,0-2-.59,4.64,4.64,0,0,0-1.78.36,6.8,6.8,0,0,0-1.63.94,7.41,7.41,0,0,0-1.32,1.34,8,8,0,0,0-.93,1.51,5.87,5.87,0,0,0-.55,1.93,3.57,3.57,0,0,0,.38,2A3.26,3.26,0,0,0,153,21.53a15.92,15.92,0,0,0,2.6,1l1.08.36c.35.13.66.26.94.39a3.5,3.5,0,0,1,.67.41.54.54,0,0,1,.25.38c0,.13-.17.32-.51.57a6.28,6.28,0,0,1-1.36.7,13.34,13.34,0,0,1-2,.58,11.34,11.34,0,0,1-2.41.25,6.68,6.68,0,0,1-2.55-.4,4.07,4.07,0,0,1-1.48-1,3,3,0,0,1-.68-1.28,5.64,5.64,0,0,1-.16-1.27,7.89,7.89,0,0,1,.17-1.64A13,13,0,0,1,148,19c.17-.56.37-1.1.58-1.63h-3.08q-.32.78-.58,1.68a15.83,15.83,0,0,0-.41,1.8,12.94,12.94,0,0,0-.17,2.15,9,9,0,0,0,.36,2.51,5.88,5.88,0,0,0,1.23,2.27,6.32,6.32,0,0,0,2.34,1.63,9.43,9.43,0,0,0,3.67.62,12.77,12.77,0,0,0,2.63-.26,14.52,14.52,0,0,0,2.26-.67,10.43,10.43,0,0,0,1.8-.9,6.46,6.46,0,0,0,1.23-1,5.61,5.61,0,0,0,.79-1,7.2,7.2,0,0,0,.52-1.1,6.39,6.39,0,0,0,.29-1,4.68,4.68,0,0,0,.09-.83,3,3,0,0,0-.94-2.29A7.68,7.68,0,0,0,157.57,19.34Z"/><path class="cls-1" d="M172.69,16.09a6,6,0,0,0-1.64-1.86,3.73,3.73,0,0,0-2.26-.72,4,4,0,0,0-2.14.59A6.07,6.07,0,0,0,165,15.61a7.19,7.19,0,0,0-1.08,2,6.41,6.41,0,0,0-.37,2.11,4.48,4.48,0,0,0,1.22,3.47,4.7,4.7,0,0,0,3.31,1.12,5.64,5.64,0,0,0,2-.33,7.36,7.36,0,0,0,1.38-.68,4.3,4.3,0,0,1-.42,1.22,3.4,3.4,0,0,1-.84,1,3.93,3.93,0,0,1-1.32.71,5.85,5.85,0,0,1-1.86.26,10,10,0,0,1-2.55-.26l-1-.29.11,3.34a4.43,4.43,0,0,0,.9.35,7.78,7.78,0,0,0,1.12.25,10.12,10.12,0,0,0,1.53.1,6.2,6.2,0,0,0,3.19-.77,6.49,6.49,0,0,0,2.14-2,8.77,8.77,0,0,0,1.2-2.82,13.47,13.47,0,0,0,.38-3.17,11.13,11.13,0,0,0-.33-2.64A9.47,9.47,0,0,0,172.69,16.09Zm-2.92,4.41a10.21,10.21,0,0,1-1.83.15,8.39,8.39,0,0,1-.84,0,4.42,4.42,0,0,1-.79-.14,1.59,1.59,0,0,1-.58-.29.56.56,0,0,1-.23-.45,1.76,1.76,0,0,1,.19-.73,3.33,3.33,0,0,1,.51-.77,2.73,2.73,0,0,1,.8-.61,2.22,2.22,0,0,1,1-.25,2.54,2.54,0,0,1,1.12.25,3.19,3.19,0,0,1,.9.65,4.31,4.31,0,0,1,.67.91,6.21,6.21,0,0,1,.45,1C170.78,20.31,170.32,20.41,169.77,20.5Z"/><path class="cls-1" d="M216,18.34c0-.26,0-.56-.06-.89s0-.67-.07-1-.06-.79-.1-1.34q-.12-1.39-.26-3l-3.37.35.55,6.68a17.17,17.17,0,0,1-2-.62,10.36,10.36,0,0,1-1.8-.86c.08-.62.15-1.24.22-1.86s.13-1.24.19-1.86H206.1c0,.18-.05.45-.1.81s-.1.76-.16,1.19-.12.84-.19,1.25l-.16,1a.83.83,0,0,1-.48.48,3.07,3.07,0,0,1-1.15.16,3.48,3.48,0,0,1-1.77-.32c.1-.56.18-1.14.25-1.73s.14-1.19.22-1.79h-3.11c-.08.52-.16,1-.23,1.42s-.12.75-.18,1.1-.11.59-.14.73-.23.33-.57.42a8.94,8.94,0,0,1-1.9.13H185.19a12.42,12.42,0,0,0-4.12.59,8.16,8.16,0,0,0-2.73,1.52,5.86,5.86,0,0,0-1.52,2,5.32,5.32,0,0,0-.48,2.12,8.8,8.8,0,0,0,.28,2,3,3,0,0,0,1,1.56,5.63,5.63,0,0,0,2.22,1,17,17,0,0,0,3.85.35H186l1.9,0c.58,0,9.07,0,9.57,0h1.54V26.14c-.79,0-9.69,0-10.78,0h-4.05a27.19,27.19,0,0,1-3.92-.22c-.95-.15-1.42-.5-1.42-1.06a1.26,1.26,0,0,1,.26-.65,2.52,2.52,0,0,1,.88-.74,7,7,0,0,1,1.66-.61,10.74,10.74,0,0,1,2.57-.26h12.63v0a8.14,8.14,0,0,0,1.95-.28,3.1,3.1,0,0,0,1.71-1.41,2.94,2.94,0,0,0,1.22,1.31,4.36,4.36,0,0,0,2.06.41A4,4,0,0,0,206,22a3.69,3.69,0,0,0,1.16-1.16,9.48,9.48,0,0,0,1.44.86,13.85,13.85,0,0,0,1.58.67,11.56,11.56,0,0,0,1.48.42,5.78,5.78,0,0,0,1.1.15,1.81,1.81,0,0,0,1-.39,5.56,5.56,0,0,0,1-1,6.06,6.06,0,0,0,.83-1.31,3.19,3.19,0,0,0,.33-1.35C216,18.8,216,18.6,216,18.34Z"/><path class="cls-1" d="M135.71,26.74a1.44,1.44,0,0,0-1,.39,1.33,1.33,0,0,0-.41,1,1.37,1.37,0,0,0,.41,1,1.41,1.41,0,0,0,1,.41,1.42,1.42,0,0,0,1-.41,1.36,1.36,0,0,0,.42-1,1.32,1.32,0,0,0-.42-1A1.46,1.46,0,0,0,135.71,26.74Z"/><path class="cls-1" d="M120.81,26.74a1.44,1.44,0,0,0-1,.39,1.33,1.33,0,0,0-.41,1,1.37,1.37,0,0,0,.41,1,1.41,1.41,0,0,0,1,.41,1.42,1.42,0,0,0,1-.41,1.36,1.36,0,0,0,.42-1,1.32,1.32,0,0,0-.42-1A1.46,1.46,0,0,0,120.81,26.74Z"/><path class="cls-1" d="M123.71,26.74a1.44,1.44,0,0,0-1,.39,1.33,1.33,0,0,0-.41,1,1.37,1.37,0,0,0,.41,1,1.41,1.41,0,0,0,1,.41,1.42,1.42,0,0,0,1-.41,1.36,1.36,0,0,0,.42-1,1.32,1.32,0,0,0-.42-1A1.46,1.46,0,0,0,123.71,26.74Z"/></svg>